COMMENT %Z%%M%	%I%  %W% %G% %U%
COMMENT
COMMENT   COMPONENT_NAME: fontKJI
COMMENT
COMMENT   FUNCTIONS: none
COMMENT
COMMENT   ORIGINS: 27
COMMENT
COMMENT   IBM CONFIDENTIAL -- (IBM Confidential Restricted when
COMMENT   combined with the aggregated modules for this product)
COMMENT                    SOURCE MATERIALS
COMMENT
COMMENT   (C) COPYRIGHT International Business Machines Corp. 1989
COMMENT   All Rights Reserved
COMMENT   US Government Users Restricted Rights - Use, duplication or
COMMENT   disclosure restricted by GSA ADP Schedule Contract with IBM Corp.
COMMENT
STARTFONT 2.1
FONT -IBM_AIX-Gothic-Medium-R-Normal--19-120-100-100-M-90-JISX0201.1976-0
SIZE 19 100 100
FONTBOUNDINGBOX 9 19 0 -1
STARTPROPERTIES 23
FONTNAME_REGISTRY "-"
FOUNDRY "IBM_AIX"
FAMILY_NAME "Gothic"
WEIGHT_NAME "Medium"
SLANT "R"
SETWIDTH_NAME "Normal"
ADD_STYLE_NAME ""
PIXEL_SIZE 19
POINT_SIZE 120
RESOLUTION_X 100
RESOLUTION_Y 100
SPACING "M"
AVERAGE_WIDTH 90
CHARSET_REGISTRY "JISX0201.1976"
CHARSET_ENCODING "0"
FONT_ASCENT 18
FONT_DESCENT 1
DEFAULT_CHAR 0
CAP_HEIGHT 19
CHARSET_COLLECTIONS ""
COPYRIGHT "Copyright 1989 by IBM."
_IBM_AIX_CODESET "AIXstdNLS"
_IBM_AIX_SINGLEBYTE_CODEPAGE_SHIFTS ""
ENDPROPERTIES
CHARS 191
STARTCHAR    0
ENCODING 0
SWIDTH 473 0
DWIDTH 9 0
BBX 9 19 0 -1
BITMAP
0000
0000
0000
0000
0000
0000
0000
0000
0000
0000
0000
0000
0000
0000
0000
0000
0000
0000
0000
ENDCHAR
STARTCHAR    1
ENCODING 1
SWIDTH 473 0
DWIDTH 9 0
BBX 9 19 0 -1
BITMAP
0000
0000
0000
0000
0000
0000
0000
0000
0000
0000
0000
0000
0000
0000
0000
0000
0000
0000
0000
ENDCHAR
STARTCHAR    2
ENCODING 2
SWIDTH 473 0
DWIDTH 9 0
BBX 9 19 0 -1
BITMAP
0000
0000
0000
0000
0000
0000
0000
0000
0000
0000
0000
0000
0000
0000
0000
0000
0000
0000
0000
ENDCHAR
STARTCHAR    3
ENCODING 3
SWIDTH 473 0
DWIDTH 9 0
BBX 9 19 0 -1
BITMAP
0000
0000
0000
0000
0000
0000
0000
0000
0000
0000
0000
0000
0000
0000
0000
0000
0000
0000
0000
ENDCHAR
STARTCHAR    4
ENCODING 4
SWIDTH 473 0
DWIDTH 9 0
BBX 9 19 0 -1
BITMAP
0000
0000
0000
0000
0000
0000
0000
0000
0000
0000
0000
0000
0000
0000
0000
0000
0000
0000
0000
ENDCHAR
STARTCHAR    5
ENCODING 5
SWIDTH 473 0
DWIDTH 9 0
BBX 9 19 0 -1
BITMAP
0000
0000
0000
0000
0000
0000
0000
0000
0000
0000
0000
0000
0000
0000
0000
0000
0000
0000
0000
ENDCHAR
STARTCHAR    6
ENCODING 6
SWIDTH 473 0
DWIDTH 9 0
BBX 9 19 0 -1
BITMAP
0000
0000
0000
0000
0000
0000
0000
0000
0000
0000
0000
0000
0000
0000
0000
0000
0000
0000
0000
ENDCHAR
STARTCHAR    7
ENCODING 7
SWIDTH 473 0
DWIDTH 9 0
BBX 9 19 0 -1
BITMAP
0000
0000
0000
0000
0000
0000
0000
0000
0000
0000
0000
0000
0000
0000
0000
0000
0000
0000
0000
ENDCHAR
STARTCHAR    8
ENCODING 8
SWIDTH 473 0
DWIDTH 9 0
BBX 9 19 0 -1
BITMAP
0000
0000
0000
0000
0000
0000
0000
0000
0000
0000
0000
0000
0000
0000
0000
0000
0000
0000
0000
ENDCHAR
STARTCHAR    9
ENCODING 9
SWIDTH 473 0
DWIDTH 9 0
BBX 9 19 0 -1
BITMAP
0000
0000
0000
0000
0000
0000
0000
0000
0000
0000
0000
0000
0000
0000
0000
0000
0000
0000
0000
ENDCHAR
STARTCHAR    a
ENCODING 10
SWIDTH 473 0
DWIDTH 9 0
BBX 9 19 0 -1
BITMAP
0000
0000
0000
0000
0000
0000
0000
0000
0000
0000
0000
0000
0000
0000
0000
0000
0000
0000
0000
ENDCHAR
STARTCHAR    b
ENCODING 11
SWIDTH 473 0
DWIDTH 9 0
BBX 9 19 0 -1
BITMAP
0000
0000
0000
0000
0000
0000
0000
0000
0000
0000
0000
0000
0000
0000
0000
0000
0000
0000
0000
ENDCHAR
STARTCHAR    c
ENCODING 12
SWIDTH 473 0
DWIDTH 9 0
BBX 9 19 0 -1
BITMAP
0000
0000
0000
0000
0000
0000
0000
0000
0000
0000
0000
0000
0000
0000
0000
0000
0000
0000
0000
ENDCHAR
STARTCHAR    d
ENCODING 13
SWIDTH 473 0
DWIDTH 9 0
BBX 9 19 0 -1
BITMAP
0000
0000
0000
0000
0000
0000
0000
0000
0000
0000
0000
0000
0000
0000
0000
0000
0000
0000
0000
ENDCHAR
STARTCHAR    e
ENCODING 14
SWIDTH 473 0
DWIDTH 9 0
BBX 9 19 0 -1
BITMAP
0000
0000
0000
0000
0000
0000
0000
0000
0000
0000
0000
0000
0000
0000
0000
0000
0000
0000
0000
ENDCHAR
STARTCHAR    f
ENCODING 15
SWIDTH 473 0
DWIDTH 9 0
BBX 9 19 0 -1
BITMAP
0000
0000
0000
0000
0000
0000
0000
0000
0000
0000
0000
0000
0000
0000
0000
0000
0000
0000
0000
ENDCHAR
STARTCHAR   10
ENCODING 16
SWIDTH 473 0
DWIDTH 9 0
BBX 9 19 0 -1
BITMAP
0000
0000
0000
0000
0000
0000
0000
0000
0000
0000
0000
0000
0000
0000
0000
0000
0000
0000
0000
ENDCHAR
STARTCHAR   11
ENCODING 17
SWIDTH 473 0
DWIDTH 9 0
BBX 9 19 0 -1
BITMAP
0000
0000
0000
0000
0000
0000
0000
0000
0000
0000
0000
0000
0000
0000
0000
0000
0000
0000
0000
ENDCHAR
STARTCHAR   12
ENCODING 18
SWIDTH 473 0
DWIDTH 9 0
BBX 9 19 0 -1
BITMAP
0000
0000
0000
0000
0000
0000
0000
0000
0000
0000
0000
0000
0000
0000
0000
0000
0000
0000
0000
ENDCHAR
STARTCHAR   13
ENCODING 19
SWIDTH 473 0
DWIDTH 9 0
BBX 9 19 0 -1
BITMAP
0000
0000
0000
0000
0000
0000
0000
0000
0000
0000
0000
0000
0000
0000
0000
0000
0000
0000
0000
ENDCHAR
STARTCHAR   14
ENCODING 20
SWIDTH 473 0
DWIDTH 9 0
BBX 9 19 0 -1
BITMAP
0000
0000
0000
0000
0000
0000
0000
0000
0000
0000
0000
0000
0000
0000
0000
0000
0000
0000
0000
ENDCHAR
STARTCHAR   15
ENCODING 21
SWIDTH 473 0
DWIDTH 9 0
BBX 9 19 0 -1
BITMAP
0000
0000
0000
0000
0000
0000
0000
0000
0000
0000
0000
0000
0000
0000
0000
0000
0000
0000
0000
ENDCHAR
STARTCHAR   16
ENCODING 22
SWIDTH 473 0
DWIDTH 9 0
BBX 9 19 0 -1
BITMAP
0000
0000
0000
0000
0000
0000
0000
0000
0000
0000
0000
0000
0000
0000
0000
0000
0000
0000
0000
ENDCHAR
STARTCHAR   17
ENCODING 23
SWIDTH 473 0
DWIDTH 9 0
BBX 9 19 0 -1
BITMAP
0000
0000
0000
0000
0000
0000
0000
0000
0000
0000
0000
0000
0000
0000
0000
0000
0000
0000
0000
ENDCHAR
STARTCHAR   18
ENCODING 24
SWIDTH 473 0
DWIDTH 9 0
BBX 9 19 0 -1
BITMAP
0000
0000
0000
0000
0000
0000
0000
0000
0000
0000
0000
0000
0000
0000
0000
0000
0000
0000
0000
ENDCHAR
STARTCHAR   19
ENCODING 25
SWIDTH 473 0
DWIDTH 9 0
BBX 9 19 0 -1
BITMAP
0000
0000
0000
0000
0000
0000
0000
0000
0000
0000
0000
0000
0000
0000
0000
0000
0000
0000
0000
ENDCHAR
STARTCHAR   1a
ENCODING 26
SWIDTH 473 0
DWIDTH 9 0
BBX 9 19 0 -1
BITMAP
0000
0000
0000
0000
0000
0000
0000
0000
0000
0000
0000
0000
0000
0000
0000
0000
0000
0000
0000
ENDCHAR
STARTCHAR   1b
ENCODING 27
SWIDTH 473 0
DWIDTH 9 0
BBX 9 19 0 -1
BITMAP
0000
0000
0000
0000
0000
0000
0000
0000
0000
0000
0000
0000
0000
0000
0000
0000
0000
0000
0000
ENDCHAR
STARTCHAR   1c
ENCODING 28
SWIDTH 473 0
DWIDTH 9 0
BBX 9 19 0 -1
BITMAP
0000
0000
0000
0000
0000
0000
0000
0000
0000
0000
0000
0000
0000
0000
0000
0000
0000
0000
0000
ENDCHAR
STARTCHAR   1d
ENCODING 29
SWIDTH 473 0
DWIDTH 9 0
BBX 9 19 0 -1
BITMAP
0000
0000
0000
0000
0000
0000
0000
0000
0000
0000
0000
0000
0000
0000
0000
0000
0000
0000
0000
ENDCHAR
STARTCHAR   1e
ENCODING 30
SWIDTH 473 0
DWIDTH 9 0
BBX 9 19 0 -1
BITMAP
0000
0000
0000
0000
0000
0000
0000
0000
0000
0000
0000
0000
0000
0000
0000
0000
0000
0000
0000
ENDCHAR
STARTCHAR   1f
ENCODING 31
SWIDTH 473 0
DWIDTH 9 0
BBX 9 19 0 -1
BITMAP
0000
0000
0000
0000
0000
0000
0000
0000
0000
0000
0000
0000
0000
0000
0000
0000
0000
0000
0000
ENDCHAR
STARTCHAR   20
ENCODING 32
SWIDTH 473 0
DWIDTH 9 0
BBX 9 19 0 -1
BITMAP
0000
0000
0000
0000
0000
0000
0000
0000
0000
0000
0000
0000
0000
0000
0000
0000
0000
0000
0000
ENDCHAR
STARTCHAR   21
ENCODING 33
SWIDTH 473 0
DWIDTH 9 0
BBX 9 19 0 -1
BITMAP
0000
0000
0000
0800
0800
0800
0800
0800
0800
0800
0800
0800
0000
0000
0800
0000
0000
0000
0000
ENDCHAR
STARTCHAR   22
ENCODING 34
SWIDTH 473 0
DWIDTH 9 0
BBX 9 19 0 -1
BITMAP
0000
3300
3300
3300
0000
0000
0000
0000
0000
0000
0000
0000
0000
0000
0000
0000
0000
0000
0000
ENDCHAR
STARTCHAR   23
ENCODING 35
SWIDTH 473 0
DWIDTH 9 0
BBX 9 19 0 -1
BITMAP
0000
0000
0000
0000
2200
2200
7f00
2200
2200
2200
7f00
2200
2200
0000
0000
0000
0000
0000
0000
ENDCHAR
STARTCHAR   24
ENCODING 36
SWIDTH 473 0
DWIDTH 9 0
BBX 9 19 0 -1
BITMAP
0000
0000
0000
0800
0800
3e00
4800
4800
3e00
0900
0900
0900
7e00
0800
0800
0000
0000
0000
0000
ENDCHAR
STARTCHAR   25
ENCODING 37
SWIDTH 473 0
DWIDTH 9 0
BBX 9 19 0 -1
BITMAP
0000
0000
0000
0000
3000
4880
4900
3200
0400
0800
1300
2480
4480
0300
0000
0000
0000
0000
0000
ENDCHAR
STARTCHAR   26
ENCODING 38
SWIDTH 473 0
DWIDTH 9 0
BBX 9 19 0 -1
BITMAP
0000
0000
0000
3000
4800
4800
4800
5000
2000
5100
4a00
4400
4400
4a00
3100
0000
0000
0000
0000
ENDCHAR
STARTCHAR   27
ENCODING 39
SWIDTH 473 0
DWIDTH 9 0
BBX 9 19 0 -1
BITMAP
0000
0c00
0c00
0c00
0000
0000
0000
0000
0000
0000
0000
0000
0000
0000
0000
0000
0000
0000
0000
ENDCHAR
STARTCHAR   28
ENCODING 40
SWIDTH 473 0
DWIDTH 9 0
BBX 9 19 0 -1
BITMAP
0000
0100
0200
0400
0800
0800
1000
1000
1000
1000
1000
1000
0800
0800
0400
0200
0100
0000
0000
ENDCHAR
STARTCHAR   29
ENCODING 41
SWIDTH 473 0
DWIDTH 9 0
BBX 9 19 0 -1
BITMAP
0000
2000
1000
0800
0400
0400
0200
0200
0200
0200
0200
0200
0400
0400
0800
1000
2000
0000
0000
ENDCHAR
STARTCHAR   2a
ENCODING 42
SWIDTH 473 0
DWIDTH 9 0
BBX 9 19 0 -1
BITMAP
0000
0000
0000
0000
0000
0800
0800
4900
2a00
1400
2a00
4900
0800
0800
0000
0000
0000
0000
0000
ENDCHAR
STARTCHAR   2b
ENCODING 43
SWIDTH 473 0
DWIDTH 9 0
BBX 9 19 0 -1
BITMAP
0000
0000
0000
0000
0000
0800
0800
0800
7f00
0800
0800
0800
0000
0000
0000
0000
0000
0000
0000
ENDCHAR
STARTCHAR   2c
ENCODING 44
SWIDTH 473 0
DWIDTH 9 0
BBX 9 19 0 -1
BITMAP
0000
0000
0000
0000
0000
0000
0000
0000
0000
0000
0000
0000
1800
1800
0800
1000
2000
0000
0000
ENDCHAR
STARTCHAR   2d
ENCODING 45
SWIDTH 473 0
DWIDTH 9 0
BBX 9 19 0 -1
BITMAP
0000
0000
0000
0000
0000
0000
0000
0000
3f00
0000
0000
0000
0000
0000
0000
0000
0000
0000
0000
ENDCHAR
STARTCHAR   2e
ENCODING 46
SWIDTH 473 0
DWIDTH 9 0
BBX 9 19 0 -1
BITMAP
0000
0000
0000
0000
0000
0000
0000
0000
0000
0000
0000
0000
0000
0000
1800
1800
0000
0000
0000
ENDCHAR
STARTCHAR   2f
ENCODING 47
SWIDTH 473 0
DWIDTH 9 0
BBX 9 19 0 -1
BITMAP
0000
0000
0100
0100
0200
0200
0400
0400
0800
0800
1000
1000
2000
2000
4000
4000
0000
0000
0000
ENDCHAR
STARTCHAR   30
ENCODING 48
SWIDTH 473 0
DWIDTH 9 0
BBX 9 19 0 -1
BITMAP
0000
0000
0000
1c00
2200
4100
4100
4100
4100
4100
4100
4100
4100
2200
1c00
0000
0000
0000
0000
ENDCHAR
STARTCHAR   31
ENCODING 49
SWIDTH 473 0
DWIDTH 9 0
BBX 9 19 0 -1
BITMAP
0000
0000
0000
0800
1800
2800
0800
0800
0800
0800
0800
0800
0800
0800
1c00
0000
0000
0000
0000
ENDCHAR
STARTCHAR   32
ENCODING 50
SWIDTH 473 0
DWIDTH 9 0
BBX 9 19 0 -1
BITMAP
0000
0000
0000
1c00
2200
4100
4100
0100
0200
0400
0800
1000
2000
4000
7f00
0000
0000
0000
0000
ENDCHAR
STARTCHAR   33
ENCODING 51
SWIDTH 473 0
DWIDTH 9 0
BBX 9 19 0 -1
BITMAP
0000
0000
0000
1c00
2200
4100
0100
0200
0c00
0200
0100
0100
4100
2200
1c00
0000
0000
0000
0000
ENDCHAR
STARTCHAR   34
ENCODING 52
SWIDTH 473 0
DWIDTH 9 0
BBX 9 19 0 -1
BITMAP
0000
0000
0000
0600
0a00
1200
1200
2200
2200
4200
4200
7f00
0200
0200
0200
0000
0000
0000
0000
ENDCHAR
STARTCHAR   35
ENCODING 53
SWIDTH 473 0
DWIDTH 9 0
BBX 9 19 0 -1
BITMAP
0000
0000
0000
7e00
4000
4000
4000
5c00
6200
0100
0100
0100
0100
4200
3c00
0000
0000
0000
0000
ENDCHAR
STARTCHAR   36
ENCODING 54
SWIDTH 473 0
DWIDTH 9 0
BBX 9 19 0 -1
BITMAP
0000
0000
0000
1e00
2000
4000
4000
5c00
6200
4100
4100
4100
4100
2200
1c00
0000
0000
0000
0000
ENDCHAR
STARTCHAR   37
ENCODING 55
SWIDTH 473 0
DWIDTH 9 0
BBX 9 19 0 -1
BITMAP
0000
0000
0000
7f00
0100
0200
0400
0400
0800
0800
1000
1000
1000
1000
1000
0000
0000
0000
0000
ENDCHAR
STARTCHAR   38
ENCODING 56
SWIDTH 473 0
DWIDTH 9 0
BBX 9 19 0 -1
BITMAP
0000
0000
0000
1c00
2200
4100
4100
2200
1c00
2200
4100
4100
4100
2200
1c00
0000
0000
0000
0000
ENDCHAR
STARTCHAR   39
ENCODING 57
SWIDTH 473 0
DWIDTH 9 0
BBX 9 19 0 -1
BITMAP
0000
0000
0000
1c00
2200
4100
4100
4100
4100
2300
1d00
0100
0100
0200
1c00
0000
0000
0000
0000
ENDCHAR
STARTCHAR   3a
ENCODING 58
SWIDTH 473 0
DWIDTH 9 0
BBX 9 19 0 -1
BITMAP
0000
0000
0000
0000
0000
0000
0c00
0c00
0000
0000
0c00
0c00
0000
0000
0000
0000
0000
0000
0000
ENDCHAR
STARTCHAR   3b
ENCODING 59
SWIDTH 473 0
DWIDTH 9 0
BBX 9 19 0 -1
BITMAP
0000
0000
0000
0000
0000
0000
0c00
0c00
0000
0000
0c00
0c00
0400
0800
1000
0000
0000
0000
0000
ENDCHAR
STARTCHAR   3c
ENCODING 60
SWIDTH 473 0
DWIDTH 9 0
BBX 9 19 0 -1
BITMAP
0000
0000
0000
0000
0100
0200
0400
0800
1000
2000
1000
0800
0400
0200
0100
0000
0000
0000
0000
ENDCHAR
STARTCHAR   3d
ENCODING 61
SWIDTH 473 0
DWIDTH 9 0
BBX 9 19 0 -1
BITMAP
0000
0000
0000
0000
0000
0000
0000
7f00
0000
0000
7f00
0000
0000
0000
0000
0000
0000
0000
0000
ENDCHAR
STARTCHAR   3e
ENCODING 62
SWIDTH 473 0
DWIDTH 9 0
BBX 9 19 0 -1
BITMAP
0000
0000
0000
0000
2000
1000
0800
0400
0200
0100
0200
0400
0800
1000
2000
0000
0000
0000
0000
ENDCHAR
STARTCHAR   3f
ENCODING 63
SWIDTH 473 0
DWIDTH 9 0
BBX 9 19 0 -1
BITMAP
0000
0000
0000
1c00
2200
4100
4100
4200
0400
0800
0800
0800
0000
0000
0800
0000
0000
0000
0000
ENDCHAR
STARTCHAR   40
ENCODING 64
SWIDTH 473 0
DWIDTH 9 0
BBX 9 19 0 -1
BITMAP
0000
0000
0000
1c00
2200
4100
4100
4d00
5500
5500
5500
5a00
4000
2000
1f00
0000
0000
0000
0000
ENDCHAR
STARTCHAR   41
ENCODING 65
SWIDTH 473 0
DWIDTH 9 0
BBX 9 19 0 -1
BITMAP
0000
0000
0000
0800
1400
1400
2200
2200
4100
4100
7f00
4100
4100
4100
4100
0000
0000
0000
0000
ENDCHAR
STARTCHAR   42
ENCODING 66
SWIDTH 473 0
DWIDTH 9 0
BBX 9 19 0 -1
BITMAP
0000
0000
0000
7e00
2100
2080
2080
2100
3e00
2100
2080
2080
2080
2100
7e00
0000
0000
0000
0000
ENDCHAR
STARTCHAR   43
ENCODING 67
SWIDTH 473 0
DWIDTH 9 0
BBX 9 19 0 -1
BITMAP
0000
0000
0000
1c00
2200
4100
4100
4000
4000
4000
4000
4100
4100
2200
1c00
0000
0000
0000
0000
ENDCHAR
STARTCHAR   44
ENCODING 68
SWIDTH 473 0
DWIDTH 9 0
BBX 9 19 0 -1
BITMAP
0000
0000
0000
7c00
2200
2100
2080
2080
2080
2080
2080
2080
2100
2200
7c00
0000
0000
0000
0000
ENDCHAR
STARTCHAR   45
ENCODING 69
SWIDTH 473 0
DWIDTH 9 0
BBX 9 19 0 -1
BITMAP
0000
0000
0000
7f00
4000
4000
4000
4000
7e00
4000
4000
4000
4000
4000
7f00
0000
0000
0000
0000
ENDCHAR
STARTCHAR   46
ENCODING 70
SWIDTH 473 0
DWIDTH 9 0
BBX 9 19 0 -1
BITMAP
0000
0000
0000
7f00
4000
4000
4000
4000
7e00
4000
4000
4000
4000
4000
4000
0000
0000
0000
0000
ENDCHAR
STARTCHAR   47
ENCODING 71
SWIDTH 473 0
DWIDTH 9 0
BBX 9 19 0 -1
BITMAP
0000
0000
0000
1c00
2200
4100
4000
4000
4000
4f00
4200
4200
4200
2200
1e00
0000
0000
0000
0000
ENDCHAR
STARTCHAR   48
ENCODING 72
SWIDTH 473 0
DWIDTH 9 0
BBX 9 19 0 -1
BITMAP
0000
0000
0000
4100
4100
4100
4100
4100
7f00
4100
4100
4100
4100
4100
4100
0000
0000
0000
0000
ENDCHAR
STARTCHAR   49
ENCODING 73
SWIDTH 473 0
DWIDTH 9 0
BBX 9 19 0 -1
BITMAP
0000
0000
0000
3e00
0800
0800
0800
0800
0800
0800
0800
0800
0800
0800
3e00
0000
0000
0000
0000
ENDCHAR
STARTCHAR   4a
ENCODING 74
SWIDTH 473 0
DWIDTH 9 0
BBX 9 19 0 -1
BITMAP
0000
0000
0000
1f00
0400
0400
0400
0400
0400
0400
0400
0400
4400
4400
3800
0000
0000
0000
0000
ENDCHAR
STARTCHAR   4b
ENCODING 75
SWIDTH 473 0
DWIDTH 9 0
BBX 9 19 0 -1
BITMAP
0000
0000
0000
2080
2100
2200
2400
2800
3000
2800
2400
2200
2100
2080
2080
0000
0000
0000
0000
ENDCHAR
STARTCHAR   4c
ENCODING 76
SWIDTH 473 0
DWIDTH 9 0
BBX 9 19 0 -1
BITMAP
0000
0000
0000
2000
2000
2000
2000
2000
2000
2000
2000
2000
2000
2000
3f00
0000
0000
0000
0000
ENDCHAR
STARTCHAR   4d
ENCODING 77
SWIDTH 473 0
DWIDTH 9 0
BBX 9 19 0 -1
BITMAP
0000
0000
0000
4100
6300
5500
5500
4900
4900
4900
4100
4100
4100
4100
4100
0000
0000
0000
0000
ENDCHAR
STARTCHAR   4e
ENCODING 78
SWIDTH 473 0
DWIDTH 9 0
BBX 9 19 0 -1
BITMAP
0000
0000
0000
4100
6100
5100
5100
4900
4900
4500
4500
4300
4100
4100
4100
0000
0000
0000
0000
ENDCHAR
STARTCHAR   4f
ENCODING 79
SWIDTH 473 0
DWIDTH 9 0
BBX 9 19 0 -1
BITMAP
0000
0000
0000
3e00
4100
4100
4100
4100
4100
4100
4100
4100
4100
4100
3e00
0000
0000
0000
0000
ENDCHAR
STARTCHAR   50
ENCODING 80
SWIDTH 473 0
DWIDTH 9 0
BBX 9 19 0 -1
BITMAP
0000
0000
0000
7c00
4200
4100
4100
4100
4200
7c00
4000
4000
4000
4000
4000
0000
0000
0000
0000
ENDCHAR
STARTCHAR   51
ENCODING 81
SWIDTH 473 0
DWIDTH 9 0
BBX 9 19 0 -1
BITMAP
0000
0000
0000
1c00
2200
4100
4100
4100
4100
4100
4100
4900
4500
2200
1d00
0000
0000
0000
0000
ENDCHAR
STARTCHAR   52
ENCODING 82
SWIDTH 473 0
DWIDTH 9 0
BBX 9 19 0 -1
BITMAP
0000
0000
0000
7c00
4200
4100
4100
4200
7c00
5000
4800
4800
4400
4200
4100
0000
0000
0000
0000
ENDCHAR
STARTCHAR   53
ENCODING 83
SWIDTH 473 0
DWIDTH 9 0
BBX 9 19 0 -1
BITMAP
0000
0000
0000
1c00
2200
4100
4000
2000
1c00
0200
0100
0100
4100
2200
1c00
0000
0000
0000
0000
ENDCHAR
STARTCHAR   54
ENCODING 84
SWIDTH 473 0
DWIDTH 9 0
BBX 9 19 0 -1
BITMAP
0000
0000
0000
7f00
0800
0800
0800
0800
0800
0800
0800
0800
0800
0800
0800
0000
0000
0000
0000
ENDCHAR
STARTCHAR   55
ENCODING 85
SWIDTH 473 0
DWIDTH 9 0
BBX 9 19 0 -1
BITMAP
0000
0000
0000
4100
4100
4100
4100
4100
4100
4100
4100
4100
4100
2200
1c00
0000
0000
0000
0000
ENDCHAR
STARTCHAR   56
ENCODING 86
SWIDTH 473 0
DWIDTH 9 0
BBX 9 19 0 -1
BITMAP
0000
0000
0000
4100
4100
4100
4100
4100
2200
2200
2200
1400
1400
1400
0800
0000
0000
0000
0000
ENDCHAR
STARTCHAR   57
ENCODING 87
SWIDTH 473 0
DWIDTH 9 0
BBX 9 19 0 -1
BITMAP
0000
0000
0000
4100
4100
4100
4100
4100
4900
4900
4900
4900
4900
5500
2200
0000
0000
0000
0000
ENDCHAR
STARTCHAR   58
ENCODING 88
SWIDTH 473 0
DWIDTH 9 0
BBX 9 19 0 -1
BITMAP
0000
0000
0000
4100
4100
2200
2200
1400
0800
1400
2200
2200
4100
4100
4100
0000
0000
0000
0000
ENDCHAR
STARTCHAR   59
ENCODING 89
SWIDTH 473 0
DWIDTH 9 0
BBX 9 19 0 -1
BITMAP
0000
0000
0000
4100
4100
4100
2200
2200
1400
1400
0800
0800
0800
0800
0800
0000
0000
0000
0000
ENDCHAR
STARTCHAR   5a
ENCODING 90
SWIDTH 473 0
DWIDTH 9 0
BBX 9 19 0 -1
BITMAP
0000
0000
0000
7f00
0100
0200
0200
0400
0800
0800
1000
1000
2000
4000
7f00
0000
0000
0000
0000
ENDCHAR
STARTCHAR   5b
ENCODING 91
SWIDTH 473 0
DWIDTH 9 0
BBX 9 19 0 -1
BITMAP
0000
0f00
0800
0800
0800
0800
0800
0800
0800
0800
0800
0800
0800
0800
0800
0800
0f00
0000
0000
ENDCHAR
STARTCHAR   5c
ENCODING 92
SWIDTH 473 0
DWIDTH 9 0
BBX 9 19 0 -1
BITMAP
0000
0000
0000
4100
2200
1400
0800
0800
7f00
0800
0800
7f00
0800
0800
0800
0000
0000
0000
0000
ENDCHAR
STARTCHAR   5d
ENCODING 93
SWIDTH 473 0
DWIDTH 9 0
BBX 9 19 0 -1
BITMAP
0000
3c00
0400
0400
0400
0400
0400
0400
0400
0400
0400
0400
0400
0400
0400
0400
3c00
0000
0000
ENDCHAR
STARTCHAR   5e
ENCODING 94
SWIDTH 473 0
DWIDTH 9 0
BBX 9 19 0 -1
BITMAP
0000
0c00
1200
0000
0000
0000
0000
0000
0000
0000
0000
0000
0000
0000
0000
0000
0000
0000
0000
ENDCHAR
STARTCHAR   5f
ENCODING 95
SWIDTH 473 0
DWIDTH 9 0
BBX 9 19 0 -1
BITMAP
0000
0000
0000
0000
0000
0000
0000
0000
0000
0000
0000
0000
0000
0000
0000
0000
7f80
0000
0000
ENDCHAR
STARTCHAR   60
ENCODING 96
SWIDTH 473 0
DWIDTH 9 0
BBX 9 19 0 -1
BITMAP
0000
1000
0800
0400
0000
0000
0000
0000
0000
0000
0000
0000
0000
0000
0000
0000
0000
0000
0000
ENDCHAR
STARTCHAR   61
ENCODING 97
SWIDTH 473 0
DWIDTH 9 0
BBX 9 19 0 -1
BITMAP
0000
0000
0000
0000
0000
0000
3c00
0200
0200
3e00
4200
4200
4200
4200
3d00
0000
0000
0000
0000
ENDCHAR
STARTCHAR   62
ENCODING 98
SWIDTH 473 0
DWIDTH 9 0
BBX 9 19 0 -1
BITMAP
0000
0000
0000
2000
2000
2000
3c00
2200
2100
2100
2100
2100
2100
2200
3c00
0000
0000
0000
0000
ENDCHAR
STARTCHAR   63
ENCODING 99
SWIDTH 473 0
DWIDTH 9 0
BBX 9 19 0 -1
BITMAP
0000
0000
0000
0000
0000
0000
1e00
2000
4000
4000
4000
4000
4000
2000
1e00
0000
0000
0000
0000
ENDCHAR
STARTCHAR   64
ENCODING 100
SWIDTH 473 0
DWIDTH 9 0
BBX 9 19 0 -1
BITMAP
0000
0000
0000
0200
0200
0200
1e00
2200
4200
4200
4200
4200
4200
2200
1e00
0000
0000
0000
0000
ENDCHAR
STARTCHAR   65
ENCODING 101
SWIDTH 473 0
DWIDTH 9 0
BBX 9 19 0 -1
BITMAP
0000
0000
0000
0000
0000
0000
1c00
2200
4100
4100
7f00
4000
4000
2000
1e00
0000
0000
0000
0000
ENDCHAR
STARTCHAR   66
ENCODING 102
SWIDTH 473 0
DWIDTH 9 0
BBX 9 19 0 -1
BITMAP
0000
0000
0000
0600
0900
0800
0800
3e00
0800
0800
0800
0800
0800
0800
0800
0000
0000
0000
0000
ENDCHAR
STARTCHAR   67
ENCODING 103
SWIDTH 473 0
DWIDTH 9 0
BBX 9 19 0 -1
BITMAP
0000
0000
0000
0000
0000
0000
1c00
2200
4200
4200
4200
4600
3a00
0200
0200
3c00
0000
0000
0000
ENDCHAR
STARTCHAR   68
ENCODING 104
SWIDTH 473 0
DWIDTH 9 0
BBX 9 19 0 -1
BITMAP
0000
0000
0000
2000
2000
2000
2c00
3200
2100
2100
2100
2100
2100
2100
2100
0000
0000
0000
0000
ENDCHAR
STARTCHAR   69
ENCODING 105
SWIDTH 473 0
DWIDTH 9 0
BBX 9 19 0 -1
BITMAP
0000
0000
0000
0800
0000
0000
0800
0800
0800
0800
0800
0800
0800
0800
0800
0000
0000
0000
0000
ENDCHAR
STARTCHAR   6a
ENCODING 106
SWIDTH 473 0
DWIDTH 9 0
BBX 9 19 0 -1
BITMAP
0000
0000
0000
0200
0000
0000
0200
0200
0200
0200
0200
0200
0200
0200
2200
1c00
0000
0000
0000
ENDCHAR
STARTCHAR   6b
ENCODING 107
SWIDTH 473 0
DWIDTH 9 0
BBX 9 19 0 -1
BITMAP
0000
0000
0000
2000
2000
2000
2100
2200
2400
2800
3000
2800
2400
2200
2100
0000
0000
0000
0000
ENDCHAR
STARTCHAR   6c
ENCODING 108
SWIDTH 473 0
DWIDTH 9 0
BBX 9 19 0 -1
BITMAP
0000
0000
0000
0800
0800
0800
0800
0800
0800
0800
0800
0800
0800
0800
0c00
0000
0000
0000
0000
ENDCHAR
STARTCHAR   6d
ENCODING 109
SWIDTH 473 0
DWIDTH 9 0
BBX 9 19 0 -1
BITMAP
0000
0000
0000
0000
0000
0000
3600
4900
4900
4900
4900
4900
4900
4900
4900
0000
0000
0000
0000
ENDCHAR
STARTCHAR   6e
ENCODING 110
SWIDTH 473 0
DWIDTH 9 0
BBX 9 19 0 -1
BITMAP
0000
0000
0000
0000
0000
0000
5e00
2100
2100
2100
2100
2100
2100
2100
2100
0000
0000
0000
0000
ENDCHAR
STARTCHAR   6f
ENCODING 111
SWIDTH 473 0
DWIDTH 9 0
BBX 9 19 0 -1
BITMAP
0000
0000
0000
0000
0000
0000
1c00
2200
4100
4100
4100
4100
4100
2200
1c00
0000
0000
0000
0000
ENDCHAR
STARTCHAR   70
ENCODING 112
SWIDTH 473 0
DWIDTH 9 0
BBX 9 19 0 -1
BITMAP
0000
0000
0000
0000
0000
0000
3c00
2200
2100
2100
2100
2200
3c00
2000
2000
2000
0000
0000
0000
ENDCHAR
STARTCHAR   71
ENCODING 113
SWIDTH 473 0
DWIDTH 9 0
BBX 9 19 0 -1
BITMAP
0000
0000
0000
0000
0000
0000
1e00
2200
4200
4200
4200
2200
1e00
0200
0200
0380
0000
0000
0000
ENDCHAR
STARTCHAR   72
ENCODING 114
SWIDTH 473 0
DWIDTH 9 0
BBX 9 19 0 -1
BITMAP
0000
0000
0000
0000
0000
0000
4e00
3100
2000
2000
2000
2000
2000
2000
2000
0000
0000
0000
0000
ENDCHAR
STARTCHAR   73
ENCODING 115
SWIDTH 473 0
DWIDTH 9 0
BBX 9 19 0 -1
BITMAP
0000
0000
0000
0000
0000
0000
1e00
2100
2000
1000
0c00
0200
0100
2100
1e00
0000
0000
0000
0000
ENDCHAR
STARTCHAR   74
ENCODING 116
SWIDTH 473 0
DWIDTH 9 0
BBX 9 19 0 -1
BITMAP
0000
0000
0000
0800
0800
0800
3e00
0800
0800
0800
0800
0800
0800
0800
0700
0000
0000
0000
0000
ENDCHAR
STARTCHAR   75
ENCODING 117
SWIDTH 473 0
DWIDTH 9 0
BBX 9 19 0 -1
BITMAP
0000
0000
0000
0000
0000
0000
4200
4200
4200
4200
4200
4200
4200
4200
3d00
0000
0000
0000
0000
ENDCHAR
STARTCHAR   76
ENCODING 118
SWIDTH 473 0
DWIDTH 9 0
BBX 9 19 0 -1
BITMAP
0000
0000
0000
0000
0000
0000
4100
4100
4100
2200
2200
2200
1400
1400
0800
0000
0000
0000
0000
ENDCHAR
STARTCHAR   77
ENCODING 119
SWIDTH 473 0
DWIDTH 9 0
BBX 9 19 0 -1
BITMAP
0000
0000
0000
0000
0000
0000
4100
4100
4900
4900
4900
4900
4900
5500
2200
0000
0000
0000
0000
ENDCHAR
STARTCHAR   78
ENCODING 120
SWIDTH 473 0
DWIDTH 9 0
BBX 9 19 0 -1
BITMAP
0000
0000
0000
0000
0000
0000
4100
4100
2200
1400
0800
1400
2200
4100
4100
0000
0000
0000
0000
ENDCHAR
STARTCHAR   79
ENCODING 121
SWIDTH 473 0
DWIDTH 9 0
BBX 9 19 0 -1
BITMAP
0000
0000
0000
0000
0000
0000
4100
4100
4100
2200
2200
1400
0800
1000
2000
4000
0000
0000
0000
ENDCHAR
STARTCHAR   7a
ENCODING 122
SWIDTH 473 0
DWIDTH 9 0
BBX 9 19 0 -1
BITMAP
0000
0000
0000
0000
0000
0000
7f00
0100
0200
0400
0800
1000
2000
4000
7f00
0000
0000
0000
0000
ENDCHAR
STARTCHAR   7b
ENCODING 123
SWIDTH 473 0
DWIDTH 9 0
BBX 9 19 0 -1
BITMAP
0000
0300
0400
0400
0400
0400
0400
0800
1000
1000
0800
0400
0400
0400
0400
0400
0300
0000
0000
ENDCHAR
STARTCHAR   7c
ENCODING 124
SWIDTH 473 0
DWIDTH 9 0
BBX 9 19 0 -1
BITMAP
0000
0800
0800
0800
0800
0800
0800
0800
0800
0800
0800
0800
0800
0800
0800
0800
0800
0000
0000
ENDCHAR
STARTCHAR   7d
ENCODING 125
SWIDTH 473 0
DWIDTH 9 0
BBX 9 19 0 -1
BITMAP
0000
3000
0800
0800
0800
0800
0800
0400
0200
0200
0400
0800
0800
0800
0800
0800
3000
0000
0000
ENDCHAR
STARTCHAR   7e
ENCODING 126
SWIDTH 473 0
DWIDTH 9 0
BBX 9 19 0 -1
BITMAP
0000
7f80
0000
0000
0000
0000
0000
0000
0000
0000
0000
0000
0000
0000
0000
0000
0000
0000
0000
ENDCHAR
STARTCHAR   7f
ENCODING 127
SWIDTH 473 0
DWIDTH 9 0
BBX 9 19 0 -1
BITMAP
0000
0000
0000
0000
0000
0000
0000
0000
0000
0000
0000
0000
0000
0000
0000
0000
0000
0000
0000
ENDCHAR
STARTCHAR   a1
ENCODING 161
SWIDTH 473 0
DWIDTH 9 0
BBX 9 19 0 -1
BITMAP
0000
0000
0000
0000
0000
0000
0000
0000
0000
0000
0000
0000
0000
1800
2400
2400
1800
0000
0000
ENDCHAR
STARTCHAR   a2
ENCODING 162
SWIDTH 473 0
DWIDTH 9 0
BBX 9 19 0 -1
BITMAP
0000
3f00
2000
2000
2000
2000
2000
2000
2000
2000
2000
0000
0000
0000
0000
0000
0000
0000
0000
ENDCHAR
STARTCHAR   a3
ENCODING 163 
SWIDTH 473 0
DWIDTH 9 0
BBX 9 19 0 -1
BITMAP
0000
0000
0000
0000
0000
0000
0000
0100
0100
0100
0100
0100
0100
0100
0100
0100
3f00
0000
0000
ENDCHAR
STARTCHAR   a4
ENCODING 164
SWIDTH 473 0
DWIDTH 9 0
BBX 9 19 0 -1
BITMAP
0000
0000
0000
0000
0000
0000
0000
0000
0000
0000
0000
0000
0000
3000
1800
0c00
0c00
0000
0000
ENDCHAR
STARTCHAR  a5
ENCODING 165
SWIDTH 473 0
DWIDTH 9 0
BBX 9 19 0 -1
BITMAP
0000
0000
0000
0000
0000
0000
0000
0000
0c00
1e00
0c00
0000
0000
0000
0000
0000
0000
0000
0000
ENDCHAR
STARTCHAR   a6
ENCODING 166
SWIDTH 473 0
DWIDTH 9 0
BBX 9 19 0 -1
BITMAP
0000
0000
0000
7f00
0100
0100
0100
7f00
0100
0100
0200
0200
0400
0800
1000
0000
0000
0000
0000
ENDCHAR
STARTCHAR   a7
ENCODING 167
SWIDTH 473 0
DWIDTH 9 0
BBX 9 19 0 -1
BITMAP
0000
0000
0000
0000
0000
0000
3f00
0100
0100
0a00
0c00
0800
0800
1000
2000
0000
0000
0000
0000
ENDCHAR
STARTCHAR   a8
ENCODING 168
SWIDTH 473 0
DWIDTH 9 0
BBX 9 19 0 -1
BITMAP
0000
0000
0000
0000
0000
0000
0100
0200
0400
0800
1400
2400
0400
0400
0400
0000
0000
0000
0000
ENDCHAR
STARTCHAR   a9
ENCODING 169
SWIDTH 473 0
DWIDTH 9 0
BBX 9 19 0 -1
BITMAP
0000
0000
0000
0000
0000
0400
0400
3f00
2100
2100
0100
0200
0200
0400
1800
0000
0000
0000
0000
ENDCHAR
STARTCHAR   aa
ENCODING 170
SWIDTH 473 0
DWIDTH 9 0
BBX 9 19 0 -1
BITMAP
0000
0000
0000
0000
0000
0000
3e00
0800
0800
0800
0800
0800
0800
0800
3f00
0000
0000
0000
0000
ENDCHAR
STARTCHAR   ab
ENCODING 171
SWIDTH 473 0
DWIDTH 9 0
BBX 9 19 0 -1
BITMAP
0000
0000
0000
0000
0000
0200
0200
3f00
0200
0600
0a00
1200
2200
0200
0600
0000
0000
0000
0000
ENDCHAR
STARTCHAR   ac
ENCODING 172
SWIDTH 473 0
DWIDTH 9 0
BBX 9 19 0 -1
BITMAP
0000
0000
0000
0000
0000
0800
0800
3f00
0900
0900
0a00
0800
0800
0800
0800
0000
0000
0000
0000
ENDCHAR
STARTCHAR   ad
ENCODING 173
SWIDTH 473 0
DWIDTH 9 0
BBX 9 19 0 -1
BITMAP
0000
0000
0000
0000
0000
0000
3c00
0400
0400
0400
0400
0400
0400
0400
3f00
0000
0000
0000
0000
ENDCHAR
STARTCHAR   ae
ENCODING 174
SWIDTH 473 0
DWIDTH 9 0
BBX 9 19 0 -1
BITMAP
0000
0000
0000
0000
0000
0000
3f00
0100
0100
0100
1f00
0100
0100
0100
3f00
0000
0000
0000
0000
ENDCHAR
STARTCHAR   af
ENCODING 175
SWIDTH 473 0
DWIDTH 9 0
BBX 9 19 0 -1
BITMAP
0000
0000
0000
0000
0000
0000
2900
2900
2900
2900
0100
0200
0200
0400
1800
0000
0000
0000
0000
ENDCHAR
STARTCHAR   b0
ENCODING 176
SWIDTH 473 0
DWIDTH 9 0
BBX 9 19 0 -1
BITMAP
0000
0000
0000
0000
0000
0000
0000
0000
0000
3f80
0000
0000
0000
0000
0000
0000
0000
0000
0000
ENDCHAR
STARTCHAR   b1
ENCODING 177
SWIDTH 473 0
DWIDTH 9 0
BBX 9 19 0 -1
BITMAP
0000
0000
0000
7f00
0100
0100
0900
0a00
0c00
0800
0800
1000
1000
2000
4000
0000
0000
0000
0000
ENDCHAR
STARTCHAR   b2
ENCODING 178
SWIDTH 473 0
DWIDTH 9 0
BBX 9 19 0 -1
BITMAP
0000
0000
0000
0000
0100
0100
0200
0400
0c00
1400
6400
0400
0400
0400
0400
0000
0000
0000
0000
ENDCHAR
STARTCHAR   b3
ENCODING 179
SWIDTH 473 0
DWIDTH 9 0
BBX 9 19 0 -1
BITMAP
0000
0000
0000
0800
0800
7f00
4100
4100
4100
0100
0100
0200
0200
0400
1800
0000
0000
0000
0000
ENDCHAR
STARTCHAR   b4
ENCODING 180
SWIDTH 473 0
DWIDTH 9 0
BBX 9 19 0 -1
BITMAP
0000
0000
0000
0000
3e00
0800
0800
0800
0800
0800
0800
0800
0800
0800
7f00
0000
0000
0000
0000
ENDCHAR
STARTCHAR   b5
ENCODING 181
SWIDTH 473 0
DWIDTH 9 0
BBX 9 19 0 -1
BITMAP
0000
0000
0000
0200
0200
0200
7f80
0200
0600
0a00
1200
2200
4200
0200
0600
0000
0000
0000
0000
ENDCHAR
STARTCHAR   b6
ENCODING 182
SWIDTH 473 0
DWIDTH 9 0
BBX 9 19 0 -1
BITMAP
0000
0000
0000
1000
1000
1000
7f00
1100
1100
1100
1100
1100
2100
2100
4300
0000
0000
0000
0000
ENDCHAR
STARTCHAR   b7
ENCODING 183
SWIDTH 473 0
DWIDTH 9 0
BBX 9 19 0 -1
BITMAP
0000
0000
0000
0800
0800
7f00
0800
0800
0800
0800
7f00
0800
0800
0800
0800
0000
0000
0000
0000
ENDCHAR
STARTCHAR   b8
ENCODING 184
SWIDTH 473 0
DWIDTH 9 0
BBX 9 19 0 -1
BITMAP
0000
0000
0000
2000
3f00
2100
2100
2100
4100
0100
0200
0200
0400
0800
3000
0000
0000
0000
0000
ENDCHAR
STARTCHAR   b9
ENCODING 185
SWIDTH 473 0
DWIDTH 9 0
BBX 9 19 0 -1
BITMAP
0000
0000
0000
2000
2000
3f00
2400
2400
4400
0400
0400
0800
0800
1000
2000
0000
0000
0000
0000
ENDCHAR
STARTCHAR   ba
ENCODING 186
SWIDTH 473 0
DWIDTH 9 0
BBX 9 19 0 -1
BITMAP
0000
0000
0000
0000
7f00
0100
0100
0100
0100
0100
0100
0100
0100
0100
7f00
0000
0000
0000
0000
ENDCHAR
STARTCHAR   bb
ENCODING 187
SWIDTH 473 0
DWIDTH 9 0
BBX 9 19 0 -1
BITMAP
0000
0000
0000
2200
2200
2200
7f00
2200
2200
2200
2200
0400
0400
0800
1000
0000
0000
0000
0000
ENDCHAR
STARTCHAR   bc
ENCODING 188
SWIDTH 473 0
DWIDTH 9 0
BBX 9 19 0 -1
BITMAP
0000
0000
2000
1000
0800
0000
4100
2100
1100
0100
0200
0200
0400
1800
6000
0000
0000
0000
0000
ENDCHAR
STARTCHAR   bd
ENCODING 189
SWIDTH 473 0
DWIDTH 9 0
BBX 9 19 0 -1
BITMAP
0000
0000
0000
7e00
0200
0200
0400
0400
0800
0800
1400
1400
2200
2200
4100
0000
0000
0000
0000
ENDCHAR
STARTCHAR   be
ENCODING 190
SWIDTH 473 0
DWIDTH 9 0
BBX 9 19 0 -1
BITMAP
0000
0000
0000
1000
1000
1000
7f00
1100
1100
1200
1400
1000
1000
1000
0f00
0000
0000
0000
0000
ENDCHAR
STARTCHAR   bf
ENCODING 191
SWIDTH 473 0
DWIDTH 9 0
BBX 9 19 0 -1
BITMAP
0000
0000
0000
4100
2100
2100
1100
1100
1200
0200
0400
0400
0800
1000
2000
0000
0000
0000
0000
ENDCHAR
STARTCHAR   c0
ENCODING 192
SWIDTH 473 0
DWIDTH 9 0
BBX 9 19 0 -1
BITMAP
0000
0000
0000
1000
1f00
1100
2100
3100
4a00
0600
0200
0400
0400
0800
3000
0000
0000
0000
0000
ENDCHAR
STARTCHAR   c1
ENCODING 193
SWIDTH 473 0
DWIDTH 9 0
BBX 9 19 0 -1
BITMAP
0000
0000
0000
0100
0600
3c00
0400
0400
7f00
0400
0400
0800
0800
1000
2000
0000
0000
0000
0000
ENDCHAR
STARTCHAR   c2
ENCODING 194
SWIDTH 473 0
DWIDTH 9 0
BBX 9 19 0 -1
BITMAP
0000
0000
0000
4900
4900
4900
4900
4900
4900
0100
0100
0200
0200
0400
1800
0000
0000
0000
0000
ENDCHAR
STARTCHAR   c3
ENCODING 195
SWIDTH 473 0
DWIDTH 9 0
BBX 9 19 0 -1
BITMAP
0000
0000
0000
3e00
0000
0000
0000
7f00
0800
0800
0800
0800
0800
1000
2000
0000
0000
0000
0000
ENDCHAR
STARTCHAR   c4
ENCODING 196
SWIDTH 473 0
DWIDTH 9 0
BBX 9 19 0 -1
BITMAP
0000
0000
0000
2000
2000
2000
2000
3000
2800
2400
2200
2100
2000
2000
2000
0000
0000
0000
0000
ENDCHAR
STARTCHAR   c5
ENCODING 197
SWIDTH 473 0
DWIDTH 9 0
BBX 9 19 0 -1
BITMAP
0000
0000
0000
0800
0800
0800
7f00
0800
0800
0800
0800
0800
0800
1000
2000
0000
0000
0000
0000
ENDCHAR
STARTCHAR   c6
ENCODING 198 
SWIDTH 473 0
DWIDTH 9 0
BBX 9 19 0 -1
BITMAP
0000
0000
0000
0000
3e00
0000
0000
0000
0000
0000
0000
0000
0000
0000
7f00
0000
0000
0000
0000
ENDCHAR
STARTCHAR   c7
ENCODING 199
SWIDTH 473 0
DWIDTH 9 0
BBX 9 19 0 -1
BITMAP
0000
0000
0000
0000
7f00
0100
0100
2100
1200
0a00
0400
0a00
1100
2100
4000
0000
0000
0000
0000
ENDCHAR
STARTCHAR   c8
ENCODING 200
SWIDTH 473 0
DWIDTH 9 0
BBX 9 19 0 -1
BITMAP
0000
0000
0000
0800
0800
7f00
0200
0400
0800
1c00
2a00
4900
0800
0800
0800
0000
0000
0000
0000
ENDCHAR
STARTCHAR   c9
ENCODING 201
SWIDTH 473 0
DWIDTH 9 0
BBX 9 19 0 -1
BITMAP
0000
0000
0000
0100
0100
0100
0100
0100
0200
0200
0400
0400
0800
1000
2000
0000
0000
0000
0000
ENDCHAR
STARTCHAR   ca
ENCODING 202
SWIDTH 473 0
DWIDTH 9 0
BBX 9 19 0 -1
BITMAP
0000
0000
0000
0800
0400
0400
1200
1200
1100
1100
1100
2100
2100
2100
4100
0000
0000
0000
0000
ENDCHAR
STARTCHAR   cb
ENCODING 203
SWIDTH 473 0
DWIDTH 9 0
BBX 9 19 0 -1
BITMAP
0000
0000
0000
4000
4000
4000
4000
7f00
4000
4000
4000
4000
4000
4000
3f00
0000
0000
0000
0000
ENDCHAR
STARTCHAR   cc
ENCODING 204
SWIDTH 473 0
DWIDTH 9 0
BBX 9 19 0 -1
BITMAP
0000
0000
0000
0000
7f00
0100
0100
0100
0100
0200
0200
0400
0800
1000
2000
0000
0000
0000
0000
ENDCHAR
STARTCHAR   cd
ENCODING 205
SWIDTH 473 0
DWIDTH 9 0
BBX 9 19 0 -1
BITMAP
0000
0000
0000
0000
1000
2800
2400
4400
0200
0200
0100
0100
0080
0080
0000
0000
0000
0000
0000
ENDCHAR
STARTCHAR   ce
ENCODING 206
SWIDTH 473 0
DWIDTH 9 0
BBX 9 19 0 -1
BITMAP
0000
0000
0000
0800
0800
7f00
0800
0800
2a00
2a00
2900
4900
4900
0800
0800
0000
0000
0000
0000
ENDCHAR
STARTCHAR   cf
ENCODING 207
SWIDTH 473 0
DWIDTH 9 0
BBX 9 19 0 -1
BITMAP
0000
0000
0000
7f00
0100
0100
0100
0100
0200
2200
1400
0800
0400
0200
0200
0000
0000
0000
0000
ENDCHAR
STARTCHAR   d0
ENCODING 208
SWIDTH 473 0
DWIDTH 9 0
BBX 9 19 0 -1
BITMAP
0000
0000
0000
7000
0e00
0100
0000
3000
0c00
0200
0000
0000
7000
0e00
0100
0000
0000
0000
0000
ENDCHAR
STARTCHAR   d1
ENCODING 209
SWIDTH 473 0
DWIDTH 9 0
BBX 9 19 0 -1
BITMAP
0000
0000
0000
0800
0800
0800
0800
1000
1000
1200
2200
2100
4100
7f00
0100
0000
0000
0000
0000
ENDCHAR
STARTCHAR   d2
ENCODING 210
SWIDTH 473 0
DWIDTH 9 0
BBX 9 19 0 -1
BITMAP
0000
0000
0000
0200
0200
0200
3200
0c00
0400
0a00
0900
1000
2000
4000
0000
0000
0000
0000
0000
ENDCHAR
STARTCHAR   d3
ENCODING 211
SWIDTH 473 0
DWIDTH 9 0
BBX 9 19 0 -1
BITMAP
0000
0000
0000
7e00
1000
1000
1000
1000
7f00
1000
1000
1000
1000
1000
0f00
0000
0000
0000
0000
ENDCHAR
STARTCHAR   d4
ENCODING 212
SWIDTH 473 0
DWIDTH 9 0
BBX 9 19 0 -1
BITMAP
0000
0000
0000
1000
1000
1000
7f00
1100
1100
1200
1400
1000
1000
1000
1000
0000
0000
0000
0000
ENDCHAR
STARTCHAR   d5
ENCODING 213
SWIDTH 473 0
DWIDTH 9 0
BBX 9 19 0 -1
BITMAP
0000
0000
0000
0000
7c00
0400
0400
0400
0400
0400
0400
0400
0400
0400
7f00
0000
0000
0000
0000
ENDCHAR
STARTCHAR   d6
ENCODING 214
SWIDTH 473 0
DWIDTH 9 0
BBX 9 19 0 -1
BITMAP
0000
0000
0000
0000
7f00
0100
0100
0100
0100
3f00
0100
0100
0100
0100
7f00
0000
0000
0000
0000
ENDCHAR
STARTCHAR   d7
ENCODING 215
SWIDTH 473 0
DWIDTH 9 0
BBX 9 19 0 -1
BITMAP
0000
0000
0000
3e00
0000
0000
0000
7f00
0100
0100
0200
0200
0400
0800
3000
0000
0000
0000
0000
ENDCHAR
STARTCHAR   d8
ENCODING 216
SWIDTH 473 0
DWIDTH 9 0
BBX 9 19 0 -1
BITMAP
0000
0000
0000
4100
4100
4100
4100
4100
4100
4100
0200
0200
0400
0800
1000
0000
0000
0000
0000
ENDCHAR
STARTCHAR   d9
ENCODING 217
SWIDTH 473 0
DWIDTH 9 0
BBX 9 19 0 -1
BITMAP
0000
0000
0000
0800
2800
2800
2800
2800
2900
2900
2900
2900
2a00
2a00
4c00
0000
0000
0000
0000
ENDCHAR
STARTCHAR   da
ENCODING 218
SWIDTH 473 0
DWIDTH 9 0
BBX 9 19 0 -1
BITMAP
0000
0000
0000
4000
4000
4000
4000
4100
4100
4200
4200
4400
4800
5000
6000
0000
0000
0000
0000
ENDCHAR
STARTCHAR   db
ENCODING 219
SWIDTH 473 0
DWIDTH 9 0
BBX 9 19 0 -1
BITMAP
0000
0000
0000
0000
7f00
4100
4100
4100
4100
4100
4100
4100
4100
4100
7f00
0000
0000
0000
0000
ENDCHAR
STARTCHAR   dc
ENCODING 220
SWIDTH 473 0
DWIDTH 9 0
BBX 9 19 0 -1
BITMAP
0000
0000
0000
7f00
4100
4100
4100
4100
4100
0100
0100
0200
0200
0400
1800
0000
0000
0000
0000
ENDCHAR
STARTCHAR   dd
ENCODING 221
SWIDTH 473 0
DWIDTH 9 0
BBX 9 19 0 -1
BITMAP
0000
0000
0000
0000
0000
7000
0000
0100
0100
0100
0200
0200
0400
1800
6000
0000
0000
0000
0000
ENDCHAR
STARTCHAR   de
ENCODING 222
SWIDTH 473 0
DWIDTH 9 0
BBX 9 19 0 -1
BITMAP
0000
2400
2400
2400
0000
0000
0000
0000
0000
0000
0000
0000
0000
0000
0000
0000
0000
0000
0000
ENDCHAR
STARTCHAR   df
ENCODING 223
SWIDTH 473 0
DWIDTH 9 0
BBX 9 19 0 -1
BITMAP
0000
1800
2400
2400
1800
0000
0000
0000
0000
0000
0000
0000
0000
0000
0000
0000
0000
0000
0000
ENDCHAR
ENDFONT
